<svg width="64" height="65" viewBox="0 0 64 65" fill="none" xmlns="http://www.w3.org/2000/svg">
<path d="M63.5625 34.8149L58.3125 29.5649C58.1042 29.3566 57.875 29.2524 57.625 29.2524C57.375 29.2524 57.1667 29.3566 57 29.5649C56.7917 29.7316 56.6875 29.9504 56.6875 30.2212C56.6875 30.492 56.7917 30.7108 57 30.8774L62 35.8774L60 37.8774L48.9375 26.8149C49.1458 26.6899 49.3333 26.5441 49.5 26.3774C49.6667 26.2108 49.8333 26.0441 50 25.8774C50.1667 25.7108 50.3333 25.5441 50.5 25.3774C50.6667 25.2108 50.8125 25.0233 50.9375 24.8149L53.875 27.7524C54.0417 27.9608 54.2604 28.0649 54.5312 28.0649C54.8021 28.0649 55.0208 27.9608 55.1875 27.7524C55.3542 27.5858 55.4375 27.367 55.4375 27.0962C55.4375 26.8254 55.3542 26.6066 55.1875 26.4399L52.0625 23.3149C53.6042 20.6899 54.2083 17.8254 53.875 14.7212C53.5417 11.617 52.25 8.93994 50 6.68994C48.7083 5.43994 47.2396 4.47119 45.5938 3.78369C43.9479 3.09619 42.2292 2.75244 40.4375 2.75244C38.6042 2.75244 36.8646 3.09619 35.2188 3.78369C33.5729 4.47119 32.1042 5.43994 30.8125 6.68994C29.4792 8.02327 28.5 9.52327 27.875 11.1899C27.2083 12.8566 26.875 14.5545 26.875 16.2837C26.875 18.0129 27.2083 19.7108 27.875 21.3774C28.5 23.0441 29.4792 24.5441 30.8125 25.8774C32.1458 27.2108 33.6458 28.2108 35.3125 28.8774C36.9792 29.5441 38.6875 29.8774 40.4375 29.8774C41.6458 29.8774 42.8438 29.7108 44.0312 29.3774C45.2188 29.0441 46.3333 28.5649 47.375 27.9399L58.875 39.4399C59.0417 39.6066 59.2188 39.7212 59.4062 39.7837C59.5938 39.8462 59.7917 39.8774 60 39.8774C60.2083 39.8774 60.4062 39.8462 60.5938 39.7837C60.7812 39.7212 60.9583 39.6066 61.125 39.4399L63.5625 37.0024C63.8542 36.7108 64 36.3462 64 35.9087C64 35.4712 63.8542 35.1066 63.5625 34.8149ZM40.4375 28.0024C38.9375 28.0024 37.4688 27.7108 36.0312 27.1274C34.5938 26.5441 33.2917 25.6899 32.125 24.5649C29.875 22.2733 28.75 19.5129 28.75 16.2837C28.75 13.0545 29.875 10.3149 32.125 8.06494C33.25 6.93994 34.5208 6.08577 35.9375 5.50244C37.3542 4.91911 38.8542 4.62744 40.4375 4.62744C41.9792 4.62744 43.4583 4.91911 44.875 5.50244C46.2917 6.08577 47.5625 6.93994 48.6875 8.06494C50.9375 10.3149 52.0625 13.0545 52.0625 16.2837C52.0625 19.5129 50.9375 22.2733 48.6875 24.5649C47.5208 25.6899 46.2188 26.5441 44.7812 27.1274C43.3438 27.7108 41.8958 28.0024 40.4375 28.0024ZM47.4375 9.31494C46.4792 8.35661 45.3958 7.62744 44.1875 7.12744C42.9792 6.62744 41.7292 6.37744 40.4375 6.37744C39.1042 6.37744 37.8333 6.62744 36.625 7.12744C35.4167 7.62744 34.3333 8.35661 33.375 9.31494C32.4583 10.2316 31.75 11.2941 31.25 12.5024C30.75 13.7108 30.5 14.9816 30.5 16.3149C30.5 17.6483 30.75 18.9087 31.25 20.0962C31.75 21.2837 32.4583 22.3566 33.375 23.3149C34.375 24.2733 35.4792 24.992 36.6875 25.4712C37.8958 25.9504 39.1458 26.1899 40.4375 26.1899C41.6875 26.1899 42.9271 25.9504 44.1562 25.4712C45.3854 24.992 46.4792 24.2733 47.4375 23.3149C48.3542 22.3566 49.0625 21.2837 49.5625 20.0962C50.0625 18.9087 50.3125 17.6483 50.3125 16.3149C50.3125 14.9816 50.0625 13.7108 49.5625 12.5024C49.0625 11.2941 48.3542 10.2316 47.4375 9.31494ZM46.0625 22.0024C45.3125 22.7941 44.4375 23.3774 43.4375 23.7524C42.4375 24.1274 41.4375 24.3149 40.4375 24.3149C39.3958 24.3149 38.375 24.117 37.375 23.7212C36.375 23.3254 35.5 22.7524 34.75 22.0024C33.9583 21.2108 33.3646 20.3358 32.9688 19.3774C32.5729 18.4191 32.375 17.3983 32.375 16.3149C32.375 15.2316 32.5729 14.2004 32.9688 13.2212C33.3646 12.242 33.9583 11.3774 34.75 10.6274C35.5 9.87744 36.3646 9.29411 37.3438 8.87744C38.3229 8.46077 39.3542 8.25244 40.4375 8.25244C41.4792 8.25244 42.4896 8.46077 43.4688 8.87744C44.4479 9.29411 45.3125 9.87744 46.0625 10.6274C46.8542 11.3774 47.4479 12.242 47.8438 13.2212C48.2396 14.2004 48.4375 15.2316 48.4375 16.3149C48.4375 17.3983 48.2396 18.4191 47.8438 19.3774C47.4479 20.3358 46.8542 21.2108 46.0625 22.0024ZM51.375 43.2524C51.2083 43.4608 51.1458 43.6899 51.1875 43.9399C51.2292 44.1899 51.3542 44.3983 51.5625 44.5649C51.7708 44.6899 52 44.742 52.25 44.7212C52.5 44.7004 52.7083 44.5858 52.875 44.3774C52.9167 44.3358 52.9479 44.2941 52.9688 44.2524C52.9896 44.2108 53.0208 44.1691 53.0625 44.1274C54.0208 42.7524 54.3646 41.3774 54.0938 40.0024C53.8229 38.6274 53.25 37.5024 52.375 36.6274C51.5 35.7108 50.375 35.117 49 34.8462C47.625 34.5754 46.2292 34.9399 44.8125 35.9399C44.6042 36.1066 44.3854 36.2837 44.1562 36.4712C43.9271 36.6587 43.7083 36.8566 43.5 37.0649C42.2083 38.3149 41.3333 39.8149 40.875 41.5649C40.4167 43.3149 40.3958 45.0649 40.8125 46.8149L38.3125 49.3149L35.875 46.8149C36.2917 45.0649 36.2708 43.3149 35.8125 41.5649C35.3542 39.8149 34.4792 38.3149 33.1875 37.0649C32.9792 36.8566 32.7604 36.6587 32.5312 36.4712C32.3021 36.2837 32.0833 36.1066 31.875 35.9399C31.4167 35.6066 30.9688 35.3566 30.5312 35.1899C30.0938 35.0233 29.6458 34.9191 29.1875 34.8774C28.1875 33.6274 27.0417 32.5545 25.75 31.6587C24.4583 30.7629 23.0625 30.0858 21.5625 29.6274V26.1274C21.5625 25.8774 21.4688 25.6587 21.2812 25.4712C21.0938 25.2837 20.875 25.1899 20.625 25.1899C20.375 25.1899 20.1562 25.2837 19.9688 25.4712C19.7812 25.6587 19.6875 25.8774 19.6875 26.1274V29.8149C19.6875 30.1899 19.7917 30.5129 20 30.7837C20.2083 31.0545 20.4792 31.2316 20.8125 31.3149C21.9375 31.6899 23.0208 32.1899 24.0625 32.8149C25.1042 33.4399 26.0417 34.1899 26.875 35.0649C26.375 35.2316 25.9062 35.4399 25.4688 35.6899C25.0312 35.9399 24.6458 36.2524 24.3125 36.6274C24.1458 36.7524 24 36.8983 23.875 37.0649C23.75 37.2316 23.625 37.4191 23.5 37.6274H7.0625C6.77083 37.6274 6.51042 37.6899 6.28125 37.8149C6.05208 37.9399 5.85417 38.1274 5.6875 38.3774C5.0625 39.3774 4.57292 40.4608 4.21875 41.6274C3.86458 42.7941 3.6875 43.9816 3.6875 45.1899C3.6875 46.9399 4.02083 48.6066 4.6875 50.1899C5.35417 51.7316 6.27083 53.0754 7.4375 54.2212C8.60417 55.367 9.95833 56.2733 11.5 56.9399C13.0417 57.6066 14.6875 57.9399 16.4375 57.9399C19.4792 57.9399 22.1562 56.992 24.4688 55.0962C26.7812 53.2004 28.25 50.8149 28.875 47.9399C29.1667 48.0649 29.4583 48.1587 29.75 48.2212C30.0417 48.2837 30.3333 48.3358 30.625 48.3774C30.3333 49.7108 29.8542 50.992 29.1875 52.2212C28.5208 53.4504 27.6667 54.5649 26.625 55.5649C25.25 56.9399 23.6562 57.992 21.8438 58.7212C20.0312 59.4504 18.1458 59.7941 16.1875 59.7524C14.3125 59.7524 12.5 59.3774 10.75 58.6274C9 57.8774 7.45833 56.8149 6.125 55.4399C4.79167 54.1066 3.75 52.5649 3 50.8149C2.25 49.0649 1.875 47.2524 1.875 45.3774C1.875 43.7524 2.11458 42.2004 2.59375 40.7212C3.07292 39.242 3.77083 37.8566 4.6875 36.5649C5.60417 35.3149 6.69792 34.242 7.96875 33.3462C9.23958 32.4504 10.6042 31.7733 12.0625 31.3149C12.3958 31.2316 12.6667 31.0545 12.875 30.7837C13.0833 30.5129 13.1875 30.1899 13.1875 29.8149V19.1899H19.6875V21.6899C19.6875 21.9399 19.7812 22.1587 19.9688 22.3462C20.1562 22.5337 20.375 22.6274 20.625 22.6274C20.875 22.6274 21.0938 22.5337 21.2812 22.3462C21.4688 22.1587 21.5625 21.9399 21.5625 21.6899V19.1899H22.375C23 19.1899 23.5208 18.9816 23.9375 18.5649C24.3542 18.1483 24.5625 17.6274 24.5625 17.0024V14.4399C24.5625 13.8566 24.3542 13.3462 23.9375 12.9087C23.5208 12.4712 23 12.2524 22.375 12.2524H10.4375C9.85417 12.2524 9.34375 12.4712 8.90625 12.9087C8.46875 13.3462 8.25 13.8566 8.25 14.4399V17.0024C8.25 17.6274 8.46875 18.1483 8.90625 18.5649C9.34375 18.9816 9.85417 19.1899 10.4375 19.1899H11.3125V29.6274C9.6875 30.1274 8.1875 30.8879 6.8125 31.9087C5.4375 32.9295 4.22917 34.1066 3.1875 35.4399C2.14583 36.8983 1.35417 38.4712 0.8125 40.1587C0.270833 41.8462 0 43.5858 0 45.3774C0.0416667 47.5024 0.46875 49.5545 1.28125 51.5337C2.09375 53.5129 3.27083 55.2733 4.8125 56.8149C6.3125 58.3149 8.04167 59.4816 10 60.3149C11.9583 61.1483 14.0208 61.5858 16.1875 61.6274C16.2292 61.6274 16.2708 61.6274 16.3125 61.6274C16.3542 61.6274 16.3958 61.6274 16.4375 61.6274C17.6875 61.6274 18.9062 61.492 20.0938 61.2212C21.2812 60.9504 22.4167 60.5649 23.5 60.0649H52.125C52.375 60.0649 52.5938 59.9712 52.7812 59.7837C52.9688 59.5962 53.0625 59.3774 53.0625 59.1274C53.0625 58.8774 52.9688 58.6587 52.7812 58.4712C52.5938 58.2837 52.375 58.1899 52.125 58.1899H39.25V51.0024L42.125 48.1274C42.5417 48.2524 42.9583 48.3358 43.375 48.3774C43.7917 48.4191 44.2083 48.4399 44.625 48.4399C45.4167 48.4399 46.1875 48.3566 46.9375 48.1899C47.6875 48.0233 48.4167 47.7733 49.125 47.4399C49.375 47.3149 49.5417 47.1274 49.625 46.8774C49.7083 46.6274 49.6875 46.3983 49.5625 46.1899C49.4792 45.9399 49.3125 45.7733 49.0625 45.6899C48.8125 45.6066 48.5625 45.6274 48.3125 45.7524C47.6042 46.0858 46.8646 46.3254 46.0938 46.4712C45.3229 46.617 44.5417 46.6483 43.75 46.5649L48.25 42.0649C48.4167 41.8983 48.5 41.6795 48.5 41.4087C48.5 41.1379 48.4167 40.9191 48.25 40.7524C48.0417 40.5441 47.8125 40.4399 47.5625 40.4399C47.3125 40.4399 47.0833 40.5441 46.875 40.7524L42.4375 45.1899C42.3125 43.9399 42.4583 42.7212 42.875 41.5337C43.2917 40.3462 43.9583 39.2941 44.875 38.3774C45.0417 38.2108 45.2083 38.0545 45.375 37.9087C45.5417 37.7629 45.7292 37.6066 45.9375 37.4399C46.9375 36.7316 47.8958 36.492 48.8125 36.7212C49.7292 36.9504 50.4792 37.3566 51.0625 37.9399C51.6042 38.4816 51.9896 39.2212 52.2188 40.1587C52.4479 41.0962 52.2083 42.0649 51.5 43.0649C51.5 43.0649 51.4896 43.0858 51.4688 43.1274C51.4479 43.1691 51.4167 43.2108 51.375 43.2524ZM10.4375 17.3149C10.3542 17.3149 10.2812 17.2837 10.2188 17.2212C10.1562 17.1587 10.125 17.0858 10.125 17.0024V14.4399C10.125 14.3566 10.1562 14.2837 10.2188 14.2212C10.2812 14.1587 10.3542 14.1274 10.4375 14.1274H22.375C22.4583 14.1274 22.5312 14.1587 22.5938 14.2212C22.6562 14.2837 22.6875 14.3566 22.6875 14.4399V17.0024C22.6875 17.0858 22.6562 17.1587 22.5938 17.2212C22.5312 17.2837 22.4583 17.3149 22.375 17.3149H10.4375ZM7.1875 39.5024H22.6875C22.6042 39.7941 22.5521 40.0962 22.5312 40.4087C22.5104 40.7212 22.5208 41.0441 22.5625 41.3774H6.3125C6.39583 41.0441 6.52083 40.7212 6.6875 40.4087C6.85417 40.0962 7.02083 39.7941 7.1875 39.5024ZM16.4375 56.0649C13.4375 56.0649 10.875 55.0024 8.75 52.8774C6.625 50.7524 5.5625 48.1899 5.5625 45.1899C5.5625 44.8566 5.58333 44.5233 5.625 44.1899C5.66667 43.8566 5.70833 43.5441 5.75 43.2524H23.125C23.2083 43.3774 23.2917 43.5129 23.375 43.6587C23.4583 43.8045 23.5417 43.9608 23.625 44.1274C23.7917 44.3774 23.9688 44.6066 24.1562 44.8149C24.3438 45.0233 24.5417 45.2316 24.75 45.4399C25.125 45.7733 25.5104 46.0962 25.9062 46.4087C26.3021 46.7212 26.7083 46.9816 27.125 47.1899C26.6667 49.7316 25.4375 51.8462 23.4375 53.5337C21.4375 55.2212 19.1042 56.0649 16.4375 56.0649ZM26.0625 44.1274C25.8958 43.9608 25.7396 43.7837 25.5938 43.5962C25.4479 43.4087 25.3125 43.2316 25.1875 43.0649C24.4792 42.0649 24.2396 41.0962 24.4688 40.1587C24.6979 39.2212 25.0833 38.4816 25.625 37.9399C25.9583 37.6066 26.375 37.3149 26.875 37.0649C27.375 36.8149 27.9167 36.6899 28.5 36.6899C28.875 36.6899 29.25 36.7524 29.625 36.8774C30 37.0024 30.375 37.1899 30.75 37.4399C30.9583 37.6066 31.1458 37.7629 31.3125 37.9087C31.4792 38.0545 31.6458 38.2108 31.8125 38.3774C32.7292 39.2941 33.3958 40.3462 33.8125 41.5337C34.2292 42.7212 34.375 43.9399 34.25 45.1899L29.8125 40.7524C29.6042 40.5441 29.375 40.4399 29.125 40.4399C28.875 40.4399 28.6458 40.5441 28.4375 40.7524C28.2708 40.9191 28.1875 41.1379 28.1875 41.4087C28.1875 41.6795 28.2708 41.8983 28.4375 42.0649L32.9375 46.5649C31.6875 46.6899 30.4583 46.5441 29.25 46.1274C28.0417 45.7108 26.9792 45.0441 26.0625 44.1274ZM37.375 58.1899H26.5C26.75 57.9816 27 57.7733 27.25 57.5649C27.5 57.3566 27.7292 57.1483 27.9375 56.9399C29.1458 55.7733 30.1354 54.4608 30.9062 53.0024C31.6771 51.5441 32.2292 50.0233 32.5625 48.4399C32.8958 48.4399 33.2292 48.4087 33.5625 48.3462C33.8958 48.2837 34.2292 48.2108 34.5625 48.1274L37.375 51.0024V58.1899ZM14.1875 47.9399C14.1875 48.1899 14.0938 48.4087 13.9062 48.5962C13.7188 48.7837 13.5 48.8774 13.25 48.8774C13 48.8774 12.7812 48.7837 12.5938 48.5962C12.4062 48.4087 12.3125 48.1899 12.3125 47.9399C12.3125 47.6899 12.4062 47.4712 12.5938 47.2837C12.7812 47.0962 13 47.0024 13.25 47.0024C13.5 47.0024 13.7188 47.0962 13.9062 47.2837C14.0938 47.4712 14.1875 47.6899 14.1875 47.9399ZM18.5625 52.0649C18.5625 52.3149 18.4688 52.5337 18.2812 52.7212C18.0938 52.9087 17.875 53.0024 17.625 53.0024C17.375 53.0024 17.1562 52.9087 16.9688 52.7212C16.7812 52.5337 16.6875 52.3149 16.6875 52.0649C16.6875 51.8149 16.7812 51.5962 16.9688 51.4087C17.1562 51.2212 17.375 51.1274 17.625 51.1274C17.875 51.1274 18.0938 51.2212 18.2812 51.4087C18.4688 51.5962 18.5625 51.8149 18.5625 52.0649ZM20.3125 46.0649C20.3125 46.3149 20.2188 46.5337 20.0312 46.7212C19.8438 46.9087 19.625 47.0024 19.375 47.0024C19.125 47.0024 18.9062 46.9087 18.7188 46.7212C18.5312 46.5337 18.4375 46.3149 18.4375 46.0649C18.4375 45.8149 18.5312 45.5962 18.7188 45.4087C18.9062 45.2212 19.125 45.1274 19.375 45.1274C19.625 45.1274 19.8438 45.2212 20.0312 45.4087C20.2188 45.5962 20.3125 45.8149 20.3125 46.0649Z" fill="#EEC044"/>
</svg>
