<svg width="64" height="65" viewBox="0 0 64 65" fill="none" xmlns="http://www.w3.org/2000/svg">
<path d="M16 60.1899H14.1875C12.9375 60.1899 11.8438 59.7837 10.9062 58.9712C9.96875 58.1587 9.41667 57.1483 9.25 55.9399V55.8774L6.5625 37.0649C6.52083 36.8149 6.40625 36.6066 6.21875 36.4399C6.03125 36.2733 5.8125 36.1899 5.5625 36.1899C5.3125 36.1899 5.08333 36.2837 4.875 36.4712C4.66667 36.6587 4.5625 36.8983 4.5625 37.1899C4.5625 37.2316 4.5625 37.2629 4.5625 37.2837C4.5625 37.3045 4.5625 37.3149 4.5625 37.3149L7.25 56.1899C7.54167 57.8983 8.33333 59.3254 9.625 60.4712C10.9167 61.617 12.4375 62.1899 14.1875 62.1899H16C16.2917 62.1899 16.5312 62.0962 16.7188 61.9087C16.9062 61.7212 17 61.4816 17 61.1899C17 60.8983 16.9062 60.6587 16.7188 60.4712C16.5312 60.2837 16.2917 60.1899 16 60.1899ZM28 50.1899C27.7083 50.1899 27.4688 50.2837 27.2812 50.4712C27.0938 50.6587 27 50.8983 27 51.1899V55.1899C27 56.0233 27.2917 56.7316 27.875 57.3149C28.4583 57.8983 29.1667 58.1899 30 58.1899C30.8333 58.1899 31.5417 57.8983 32.125 57.3149C32.7083 56.7316 33 56.0233 33 55.1899V43.1899C33 42.3566 32.7083 41.6483 32.125 41.0649C31.5417 40.4816 30.8333 40.1899 30 40.1899C29.1667 40.1899 28.4583 40.4816 27.875 41.0649C27.2917 41.6483 27 42.3566 27 43.1899V47.1899C27 47.4816 27.0938 47.7212 27.2812 47.9087C27.4688 48.0962 27.7083 48.1899 28 48.1899C28.2917 48.1899 28.5312 48.0962 28.7188 47.9087C28.9062 47.7212 29 47.4816 29 47.1899V43.1899C29 42.8983 29.0938 42.6587 29.2812 42.4712C29.4688 42.2837 29.7083 42.1899 30 42.1899C30.2917 42.1899 30.5312 42.2837 30.7188 42.4712C30.9062 42.6587 31 42.8983 31 43.1899V55.1899C31 55.4816 30.9062 55.7212 30.7188 55.9087C30.5312 56.0962 30.2917 56.1899 30 56.1899C29.7083 56.1899 29.4688 56.0962 29.2812 55.9087C29.0938 55.7212 29 55.4816 29 55.1899V51.1899C29 50.8983 28.9062 50.6587 28.7188 50.4712C28.5312 50.2837 28.2917 50.1899 28 50.1899ZM14 40.1899C13.1667 40.1899 12.4583 40.4816 11.875 41.0649C11.2917 41.6483 11 42.3566 11 43.1899V55.1899C11 56.0233 11.2917 56.7316 11.875 57.3149C12.4583 57.8983 13.1667 58.1899 14 58.1899C14.8333 58.1899 15.5417 57.8983 16.125 57.3149C16.7083 56.7316 17 56.0233 17 55.1899V43.1899C17 42.3566 16.7083 41.6483 16.125 41.0649C15.5417 40.4816 14.8333 40.1899 14 40.1899ZM15 55.1899C15 55.4816 14.9062 55.7212 14.7188 55.9087C14.5312 56.0962 14.2917 56.1899 14 56.1899C13.7083 56.1899 13.4688 56.0962 13.2812 55.9087C13.0938 55.7212 13 55.4816 13 55.1899V43.1899C13 42.8983 13.0938 42.6587 13.2812 42.4712C13.4688 42.2837 13.7083 42.1899 14 42.1899C14.2917 42.1899 14.5312 42.2837 14.7188 42.4712C14.9062 42.6587 15 42.8983 15 43.1899V55.1899ZM19 43.1899V55.1899C19 56.0233 19.2917 56.7316 19.875 57.3149C20.4583 57.8983 21.1667 58.1899 22 58.1899C22.8333 58.1899 23.5417 57.8983 24.125 57.3149C24.7083 56.7316 25 56.0233 25 55.1899V43.1899C25 42.3566 24.7083 41.6483 24.125 41.0649C23.5417 40.4816 22.8333 40.1899 22 40.1899C21.1667 40.1899 20.4583 40.4816 19.875 41.0649C19.2917 41.6483 19 42.3566 19 43.1899ZM23 43.1899V55.1899C23 55.4816 22.9062 55.7212 22.7188 55.9087C22.5312 56.0962 22.2917 56.1899 22 56.1899C21.7083 56.1899 21.4688 56.0962 21.2812 55.9087C21.0938 55.7212 21 55.4816 21 55.1899V43.1899C21 42.8983 21.0938 42.6587 21.2812 42.4712C21.4688 42.2837 21.7083 42.1899 22 42.1899C22.2917 42.1899 22.5312 42.2837 22.7188 42.4712C22.9062 42.6587 23 42.8983 23 43.1899ZM44 38.1899C44.2917 38.1899 44.5312 38.0962 44.7188 37.9087C44.9062 37.7212 45 37.4816 45 37.1899C45 36.8983 44.9062 36.6587 44.7188 36.4712C44.5312 36.2837 44.2917 36.1899 44 36.1899H37C36.7083 36.1899 36.4688 36.2837 36.2812 36.4712C36.0938 36.6587 36 36.8983 36 37.1899C36 37.4816 36.0938 37.7212 36.2812 37.9087C36.4688 38.0962 36.7083 38.1899 37 38.1899H44ZM23 36.1899H11C10.7083 36.1899 10.4688 36.2837 10.2812 36.4712C10.0938 36.6587 10 36.8983 10 37.1899C10 37.4816 10.0938 37.7212 10.2812 37.9087C10.4688 38.0962 10.7083 38.1899 11 38.1899H23C23.2917 38.1899 23.5312 38.0962 23.7188 37.9087C23.9062 37.7212 24 37.4816 24 37.1899C24 36.8983 23.9062 36.6587 23.7188 36.4712C23.5312 36.2837 23.2917 36.1899 23 36.1899ZM55.9375 43.2524C56.5625 42.7941 57.0625 42.2108 57.4375 41.5024C57.8125 40.7941 58 40.0233 58 39.1899C58 38.8983 57.9062 38.6587 57.7188 38.4712C57.5312 38.2837 57.2917 38.1899 57 38.1899H55.3125L55.875 34.1899H57C57.8333 34.1899 58.5417 33.8983 59.125 33.3149C59.7083 32.7316 60 32.0233 60 31.1899C60 30.3566 59.7083 29.6483 59.125 29.0649C58.5417 28.4816 57.8333 28.1899 57 28.1899H50.75L51.625 26.2524C51.9583 26.5024 52.3229 26.7004 52.7188 26.8462C53.1146 26.992 53.5417 27.0649 54 27.0649C54.9167 27.0649 55.7292 26.7941 56.4375 26.2524C57.1458 25.7108 57.625 25.0024 57.875 24.1274C57.9167 23.9608 57.9479 23.7941 57.9688 23.6274C57.9896 23.4608 58 23.2941 58 23.1274C58 23.0858 58 23.0545 58 23.0337C58 23.0129 58 22.9816 58 22.9399C58.5833 22.6066 59.0625 22.1274 59.4375 21.5024C59.8125 20.8774 60 20.2108 60 19.5024C60 18.9191 59.8854 18.367 59.6562 17.8462C59.4271 17.3254 59.1042 16.8774 58.6875 16.5024C58.7708 16.3358 58.8646 16.1379 58.9688 15.9087C59.0729 15.6795 59.1458 15.4399 59.1875 15.1899H59.25C59.2917 14.9399 59.3333 14.6795 59.375 14.4087C59.4167 14.1379 59.4375 13.8774 59.4375 13.6274C59.4375 12.7941 59.2812 12.0129 58.9688 11.2837C58.6562 10.5545 58.2292 9.91911 57.6875 9.37744C57.6042 9.29411 57.5 9.23161 57.375 9.18994C57.25 9.14827 57.125 9.12744 57 9.12744C56.7083 9.12744 56.4688 9.22119 56.2812 9.40869C56.0938 9.59619 56 9.83577 56 10.1274C56 10.2524 56.0208 10.3774 56.0625 10.5024C56.1042 10.6274 56.1875 10.7316 56.3125 10.8149C56.6458 11.1899 56.9167 11.617 57.125 12.0962C57.3333 12.5754 57.4375 13.0858 57.4375 13.6274C57.4375 14.4608 57.1979 15.2212 56.7188 15.9087C56.2396 16.5962 55.6042 17.0649 54.8125 17.3149V17.3774C54.6458 17.4191 54.5 17.5233 54.375 17.6899C54.25 17.8566 54.1875 18.0441 54.1875 18.2524C54.1875 18.3774 54.1771 18.5024 54.1562 18.6274C54.1354 18.7524 54.1042 18.8774 54.0625 19.0024V18.9399C53.8958 19.6066 53.5417 20.1483 53 20.5649C52.4583 20.9816 51.8542 21.1899 51.1875 21.1899C50.4792 21.1899 49.8646 20.9816 49.3438 20.5649C48.8229 20.1483 48.4792 19.6274 48.3125 19.0024C48.3125 19.0024 48.3125 18.9816 48.3125 18.9399C48.2708 18.8566 48.2396 18.742 48.2188 18.5962C48.1979 18.4504 48.1875 18.3149 48.1875 18.1899C48.1875 17.6483 48.3229 17.1483 48.5938 16.6899C48.8646 16.2316 49.2083 15.8566 49.625 15.5649H49.6875C49.8125 15.4816 49.9271 15.367 50.0312 15.2212C50.1354 15.0754 50.1875 14.8983 50.1875 14.6899C50.1875 14.4399 50.0833 14.2108 49.875 14.0024C49.6667 13.7941 49.4375 13.6899 49.1875 13.6899C49.0625 13.6899 48.9583 13.7108 48.875 13.7524C48.7917 13.7941 48.7292 13.8358 48.6875 13.8774C47.9375 14.2941 47.3333 14.8879 46.875 15.6587C46.4167 16.4295 46.1875 17.2733 46.1875 18.1899C46.1875 18.2316 46.1875 18.2941 46.1875 18.3774C46.1875 18.4608 46.1875 18.5441 46.1875 18.6274V18.5649C46.1042 18.6066 46.0104 18.6274 45.9062 18.6274C45.8021 18.6274 45.6875 18.6274 45.5625 18.6274C45.4375 18.6274 45.3125 18.6274 45.1875 18.6274C45.0625 18.6274 44.9375 18.6066 44.8125 18.5649H44.875C44.4167 18.4399 44.0312 18.242 43.7188 17.9712C43.4062 17.7004 43.1458 17.3774 42.9375 17.0024C42.9375 16.9608 42.9375 16.9399 42.9375 16.9399C42.8542 16.7316 42.7812 16.5233 42.7188 16.3149C42.6562 16.1066 42.625 15.8774 42.625 15.6274C42.625 15.6274 42.625 15.6066 42.625 15.5649C42.625 15.3149 42.5312 15.0858 42.3438 14.8774C42.1562 14.6691 41.9167 14.5649 41.625 14.5649C41.375 14.5649 41.1458 14.6587 40.9375 14.8462C40.7292 15.0337 40.625 15.2733 40.625 15.5649C40.625 15.5649 40.625 15.5754 40.625 15.5962C40.625 15.617 40.625 15.6274 40.625 15.6274C40.625 15.8774 40.6458 16.1066 40.6875 16.3149C40.7292 16.5233 40.7708 16.7316 40.8125 16.9399C40.6458 16.9816 40.4792 17.0233 40.3125 17.0649C40.1458 17.1066 39.9792 17.1274 39.8125 17.1274C39.6875 17.1274 39.5625 17.117 39.4375 17.0962C39.3125 17.0754 39.1875 17.0441 39.0625 17.0024C38.7292 16.9191 38.4375 16.7941 38.1875 16.6274C37.9375 16.4608 37.7083 16.2524 37.5 16.0024V15.9399C37.2917 15.6899 37.125 15.4087 37 15.0962C36.875 14.7837 36.8125 14.4608 36.8125 14.1274C36.8125 13.4191 37.0312 12.7941 37.4688 12.2524C37.9062 11.7108 38.4375 11.3566 39.0625 11.1899H39.125C39.2917 11.1483 39.4479 11.0545 39.5938 10.9087C39.7396 10.7629 39.8125 10.5858 39.8125 10.3774L39.875 10.1899C39.875 10.1483 39.875 10.1066 39.875 10.0649C39.875 10.0233 39.875 10.0024 39.875 10.0024C40.0833 9.29411 40.4375 8.68994 40.9375 8.18994C41.4375 7.68994 42.0417 7.35661 42.75 7.18994C42.75 7.31494 42.7396 7.47119 42.7188 7.65869C42.6979 7.84619 42.6875 8.02327 42.6875 8.18994C42.6875 8.73161 42.7604 9.26286 42.9062 9.78369C43.0521 10.3045 43.25 10.7733 43.5 11.1899C43.5833 11.3566 43.6979 11.4816 43.8438 11.5649C43.9896 11.6483 44.1458 11.6899 44.3125 11.6899C44.6042 11.6899 44.8438 11.5962 45.0312 11.4087C45.2188 11.2212 45.3125 10.9816 45.3125 10.6899C45.3125 10.6066 45.3021 10.5233 45.2812 10.4399C45.2604 10.3566 45.2292 10.2733 45.1875 10.1899C45.0208 9.89827 44.8958 9.58577 44.8125 9.25244C44.7292 8.91911 44.6875 8.56494 44.6875 8.18994C44.6875 7.89827 44.7188 7.60661 44.7812 7.31494C44.8438 7.02327 44.9375 6.73161 45.0625 6.43994C45.3958 5.77327 45.8854 5.23161 46.5312 4.81494C47.1771 4.39827 47.8958 4.18994 48.6875 4.18994C49.7708 4.18994 50.7083 4.57536 51.5 5.34619C52.2917 6.11702 52.6875 7.06494 52.6875 8.18994C52.6875 8.23161 52.6771 8.28369 52.6562 8.34619C52.6354 8.40869 52.625 8.48161 52.625 8.56494V8.50244C52.625 8.54411 52.625 8.56494 52.625 8.56494C52.625 8.85661 52.7292 9.09619 52.9375 9.28369C53.1458 9.47119 53.375 9.56494 53.625 9.56494C53.875 9.56494 54.0938 9.48161 54.2812 9.31494C54.4688 9.14827 54.5833 8.93994 54.625 8.68994C54.625 8.60661 54.6354 8.52327 54.6562 8.43994C54.6771 8.35661 54.6875 8.27327 54.6875 8.18994C54.6875 6.52327 54.0938 5.10661 52.9062 3.93994C51.7188 2.77327 50.3125 2.18994 48.6875 2.18994C47.6042 2.18994 46.6146 2.45036 45.7188 2.97119C44.8229 3.49202 44.1042 4.16911 43.5625 5.00244C42.2292 5.04411 41.0521 5.48161 40.0312 6.31494C39.0104 7.14827 38.3333 8.18994 38 9.43994V9.50244C37.0417 9.87744 36.2812 10.4712 35.7188 11.2837C35.1562 12.0962 34.875 13.0233 34.875 14.0649C34.875 14.5233 34.9271 14.9504 35.0312 15.3462C35.1354 15.742 35.2708 16.1274 35.4375 16.5024V16.4399C35.3542 16.5649 35.2604 16.7004 35.1562 16.8462C35.0521 16.992 34.9792 17.1274 34.9375 17.2524L34.875 17.3149L34.0625 15.5024C33.7292 14.7941 33.2708 14.1795 32.6875 13.6587C32.1042 13.1379 31.4375 12.7733 30.6875 12.5649L30.625 12.5024C30.5417 12.4608 30.4271 12.4295 30.2812 12.4087C30.1354 12.3879 30 12.3774 29.875 12.3774L29.8125 12.3149L29.5 7.00244C29.5 6.75244 29.3958 6.53369 29.1875 6.34619C28.9792 6.15869 28.75 6.06494 28.5 6.06494C28.2083 6.06494 27.9688 6.15869 27.7812 6.34619C27.5938 6.53369 27.5 6.77327 27.5 7.06494C27.5 7.06494 27.5 7.07536 27.5 7.09619C27.5 7.11702 27.5 7.12744 27.5 7.12744L27.8125 12.3774C27.6458 12.4191 27.4792 12.4712 27.3125 12.5337C27.1458 12.5962 26.9792 12.6483 26.8125 12.6899H26.875L25.5 7.93994C25.4583 7.73161 25.3438 7.55452 25.1562 7.40869C24.9688 7.26286 24.7708 7.18994 24.5625 7.18994C24.2708 7.18994 24.0312 7.28369 23.8438 7.47119C23.6562 7.65869 23.5625 7.89827 23.5625 8.18994C23.5625 8.23161 23.5625 8.27327 23.5625 8.31494C23.5625 8.35661 23.5625 8.41911 23.5625 8.50244V8.43994L23.625 8.56494L23.5 8.50244C23.4167 8.41911 23.3125 8.34619 23.1875 8.28369C23.0625 8.22119 22.9375 8.18994 22.8125 8.18994C22.6875 8.18994 22.5625 8.21077 22.4375 8.25244C22.3125 8.29411 22.2083 8.37744 22.125 8.50244V8.43994L19.125 11.3149C19.0417 11.4399 18.9688 11.5545 18.9062 11.6587C18.8438 11.7629 18.8125 11.8983 18.8125 12.0649C18.8125 12.2316 18.8542 12.3879 18.9375 12.5337C19.0208 12.6795 19.1458 12.7941 19.3125 12.8774L23.75 15.8149C23.7083 15.9399 23.6667 16.0649 23.625 16.1899C23.5833 16.3149 23.5417 16.4608 23.5 16.6274C23.4583 16.8358 23.4271 17.0441 23.4062 17.2524C23.3854 17.4608 23.375 17.6691 23.375 17.8774C23.375 17.9608 23.375 18.0441 23.375 18.1274C23.375 18.2108 23.375 18.2941 23.375 18.3774C22.625 18.5024 21.9167 18.7212 21.25 19.0337C20.5833 19.3462 19.9583 19.7316 19.375 20.1899L18.6875 19.5024C18.6042 19.4191 18.5 19.3462 18.375 19.2837C18.25 19.2212 18.125 19.1899 18 19.1899C17.75 19.1899 17.5208 19.2941 17.3125 19.5024C17.1042 19.7108 17 19.9399 17 20.1899C17 20.3149 17.0312 20.4399 17.0938 20.5649C17.1562 20.6899 17.2292 20.7941 17.3125 20.8774L17.375 20.9399C16.5417 21.1483 15.8229 21.5233 15.2188 22.0649C14.6146 22.6066 14.1667 23.2733 13.875 24.0649H13.8125L13.75 24.3774L11.3125 23.5649C11.2708 23.5233 11.2292 23.5024 11.1875 23.5024C11.1458 23.5024 11.0833 23.5024 11 23.5024C10.7083 23.5024 10.4688 23.5962 10.2812 23.7837C10.0938 23.9712 10 24.2108 10 24.5024C10 24.7108 10.0625 24.8983 10.1875 25.0649C10.3125 25.2316 10.4792 25.3566 10.6875 25.4399L30.8125 32.3774C30.9792 32.4608 31.125 32.5858 31.25 32.7524C31.375 32.9191 31.4375 33.1274 31.4375 33.3774C31.4375 33.6274 31.3438 33.8566 31.1562 34.0649C30.9688 34.2733 30.7292 34.3774 30.4375 34.3774C30.3958 34.3774 30.3438 34.367 30.2812 34.3462C30.2188 34.3254 30.1667 34.3149 30.125 34.3149L3.6875 25.1274C3.47917 25.0441 3.3125 24.9191 3.1875 24.7524C3.0625 24.5858 3 24.3983 3 24.1899C3 23.9816 3.05208 23.8045 3.15625 23.6587C3.26042 23.5129 3.39583 23.3983 3.5625 23.3149C3.64583 23.2733 3.71875 23.242 3.78125 23.2212C3.84375 23.2004 3.91667 23.1899 4 23.1899C4.04167 23.1899 4.09375 23.1899 4.15625 23.1899C4.21875 23.1899 4.27083 23.2108 4.3125 23.2524L6.875 24.1274C6.95833 24.1691 7.03125 24.1899 7.09375 24.1899C7.15625 24.1899 7.20833 24.1899 7.25 24.1899C7.54167 24.1899 7.78125 24.0962 7.96875 23.9087C8.15625 23.7212 8.25 23.4816 8.25 23.1899C8.25 22.9816 8.1875 22.7941 8.0625 22.6274C7.9375 22.4608 7.77083 22.3358 7.5625 22.2524L5 21.3774C4.83333 21.2941 4.66667 21.242 4.5 21.2212C4.33333 21.2004 4.14583 21.1899 3.9375 21.1899C3.14583 21.1899 2.44792 21.4816 1.84375 22.0649C1.23958 22.6483 0.9375 23.3566 0.9375 24.1899C0.9375 24.8566 1.13542 25.4399 1.53125 25.9399C1.92708 26.4399 2.41667 26.7941 3 27.0024L6.375 28.1899H3C2.16667 28.1899 1.45833 28.4816 0.875 29.0649C0.291667 29.6483 0 30.3566 0 31.1899C0 32.0233 0.291667 32.7316 0.875 33.3149C1.45833 33.8983 2.16667 34.1899 3 34.1899H23.6875L29.5 36.1899C29.625 36.2316 29.7708 36.2733 29.9375 36.3149C30.1042 36.3566 30.2917 36.3774 30.5 36.3774C31.3333 36.3774 32.0417 36.0858 32.625 35.5024C33.2083 34.9191 33.5 34.2108 33.5 33.3774C33.5 32.7108 33.3021 32.117 32.9062 31.5962C32.5104 31.0754 32.0208 30.7108 31.4375 30.5024L30.5 30.1899H57C57.2917 30.1899 57.5312 30.2837 57.7188 30.4712C57.9062 30.6587 58 30.8983 58 31.1899C58 31.4816 57.9062 31.7212 57.7188 31.9087C57.5312 32.0962 57.2917 32.1899 57 32.1899H36.4375C36.1875 32.1899 35.9583 32.2837 35.75 32.4712C35.5417 32.6587 35.4375 32.8983 35.4375 33.1899C35.4375 33.4816 35.5417 33.7212 35.75 33.9087C35.9583 34.0962 36.1875 34.1899 36.4375 34.1899H53.875L53.25 38.5024C52.9583 38.6274 52.6875 38.7733 52.4375 38.9399C52.1875 39.1066 51.9583 39.2733 51.75 39.4399V39.3149C51.75 39.2316 51.75 39.1691 51.75 39.1274C51.75 39.0858 51.75 39.0233 51.75 38.9399C51.75 38.6066 51.6875 38.2837 51.5625 37.9712C51.4375 37.6587 51.2708 37.3774 51.0625 37.1274C50.8125 36.8358 50.5104 36.617 50.1562 36.4712C49.8021 36.3254 49.4167 36.2524 49 36.2524C48.5833 36.2524 48.1979 36.3254 47.8438 36.4712C47.4896 36.617 47.1875 36.8358 46.9375 37.1274C46.7292 37.3774 46.5625 37.6587 46.4375 37.9712C46.3125 38.2837 46.25 38.6066 46.25 38.9399C46.25 39.0233 46.25 39.0962 46.25 39.1587C46.25 39.2212 46.25 39.2733 46.25 39.3149L46.625 42.2524C46.5 42.2108 46.3854 42.1899 46.2812 42.1899C46.1771 42.1899 46.0833 42.1899 46 42.1899C45.0417 42.1899 44.1354 42.3462 43.2812 42.6587C42.4271 42.9712 41.6667 43.3983 41 43.9399V43.1899C41 42.3566 40.7083 41.6483 40.125 41.0649C39.5417 40.4816 38.8333 40.1899 38 40.1899C37.1667 40.1899 36.4583 40.4816 35.875 41.0649C35.2917 41.6483 35 42.3566 35 43.1899V55.1899C35 56.0233 35.2917 56.7316 35.875 57.3149C36.4583 57.8983 37.1667 58.1899 38 58.1899C38.375 58.1899 38.7396 58.117 39.0938 57.9712C39.4479 57.8254 39.7708 57.6274 40.0625 57.3774C40.3125 57.9191 40.6042 58.4191 40.9375 58.8774C41.2708 59.3358 41.625 59.7733 42 60.1899H20C19.7083 60.1899 19.4688 60.2837 19.2812 60.4712C19.0938 60.6587 19 60.8983 19 61.1899C19 61.4816 19.0938 61.7212 19.2812 61.9087C19.4688 62.0962 19.7083 62.1899 20 62.1899H45.8125C45.8125 62.1899 45.8333 62.1899 45.875 62.1899C45.9167 62.1899 45.9479 62.1899 45.9688 62.1899C45.9896 62.1899 46 62.1899 46 62.1899C46.5417 62.1899 47.0729 62.1379 47.5938 62.0337C48.1146 61.9295 48.6042 61.7733 49.0625 61.5649L49 61.6274C49.4583 61.7941 49.9375 61.9295 50.4375 62.0337C50.9375 62.1379 51.4583 62.1899 52 62.1899C52.9167 62.1899 53.8021 61.8983 54.6562 61.3149C55.5104 60.7316 56.3125 59.8983 57.0625 58.8149C57.1458 58.7316 57.1979 58.6379 57.2188 58.5337C57.2396 58.4295 57.25 58.3358 57.25 58.2524C57.25 57.9608 57.1562 57.7212 56.9688 57.5337C56.7812 57.3462 56.5417 57.2524 56.25 57.2524C56.0833 57.2524 55.9271 57.2837 55.7812 57.3462C55.6354 57.4087 55.5208 57.5233 55.4375 57.6899C54.8958 58.4816 54.3229 59.0962 53.7188 59.5337C53.1146 59.9712 52.5417 60.1899 52 60.1899C51.5417 60.1899 51.0938 60.1379 50.6562 60.0337C50.2188 59.9295 49.7917 59.7733 49.375 59.5649L49.4375 59.6274C49.3542 59.5858 49.2812 59.5545 49.2188 59.5337C49.1562 59.5129 49.0833 59.5024 49 59.5024C48.9167 59.5024 48.8438 59.5129 48.7812 59.5337C48.7188 59.5545 48.6458 59.5858 48.5625 59.6274C48.1875 59.7941 47.7812 59.9295 47.3438 60.0337C46.9062 60.1379 46.4583 60.1899 46 60.1899C46 60.1899 45.9896 60.1899 45.9688 60.1899C45.9479 60.1899 45.9375 60.1899 45.9375 60.1899C44.4375 60.1483 43.0729 58.9295 41.8438 56.5337C40.6146 54.1379 40 52.0233 40 50.1899C40 48.5233 40.5833 47.1066 41.75 45.9399C42.9167 44.7733 44.3333 44.1899 46 44.1899C46.1667 44.1899 46.3229 44.2004 46.4688 44.2212C46.6146 44.242 46.7708 44.2524 46.9375 44.2524H46.875V44.3149C46.9583 44.8566 47.1979 45.3045 47.5938 45.6587C47.9896 46.0129 48.4583 46.1899 49 46.1899C49.5417 46.1899 50.0104 46.0129 50.4062 45.6587C50.8021 45.3045 51.0417 44.8566 51.125 44.3149V44.2524C51.25 44.2524 51.3854 44.242 51.5312 44.2212C51.6771 44.2004 51.8333 44.1899 52 44.1899C53.6667 44.1899 55.0833 44.7733 56.25 45.9399C57.4167 47.1066 58 48.5233 58 50.1899C57.9583 50.9399 57.8646 51.6691 57.7188 52.3774C57.5729 53.0858 57.375 53.7524 57.125 54.3774V54.3149C57.125 54.3566 57.1146 54.4087 57.0938 54.4712C57.0729 54.5337 57.0625 54.6066 57.0625 54.6899C57.0625 54.9816 57.1562 55.2212 57.3438 55.4087C57.5312 55.5962 57.7708 55.6899 58.0625 55.6899C58.2708 55.6899 58.4688 55.6274 58.6562 55.5024C58.8438 55.3774 58.9583 55.2108 59 55.0024C59.2917 54.2941 59.5208 53.5337 59.6875 52.7212C59.8542 51.9087 59.9583 51.0649 60 50.1899C60 48.6899 59.625 47.3254 58.875 46.0962C58.125 44.867 57.1458 43.9191 55.9375 43.2524ZM3 32.1899C2.70833 32.1899 2.46875 32.0962 2.28125 31.9087C2.09375 31.7212 2 31.4816 2 31.1899C2 30.8983 2.09375 30.6587 2.28125 30.4712C2.46875 30.2837 2.70833 30.1899 3 30.1899H12.1875L17.9375 32.1899H3ZM56 19.5024C56 19.4191 56.0104 19.3358 56.0312 19.2524C56.0521 19.1691 56.0833 19.0858 56.125 19.0024V18.9399C56.375 18.8149 56.6042 18.6795 56.8125 18.5337C57.0208 18.3879 57.2292 18.2316 57.4375 18.0649C57.6042 18.2316 57.7396 18.4399 57.8438 18.6899C57.9479 18.9399 58 19.2108 58 19.5024C58 19.9191 57.8646 20.3045 57.5938 20.6587C57.3229 21.0129 57 21.2524 56.625 21.3774H56.5625C56.3542 21.4608 56.1875 21.5858 56.0625 21.7524C55.9375 21.9191 55.875 22.1066 55.875 22.3149C55.875 22.3566 55.875 22.3983 55.875 22.4399C55.875 22.4816 55.8958 22.5233 55.9375 22.5649C55.9375 22.6483 55.9479 22.7316 55.9688 22.8149C55.9896 22.8983 56 23.0024 56 23.1274C56 23.2108 55.9896 23.2941 55.9688 23.3774C55.9479 23.4608 55.9375 23.5441 55.9375 23.6274V23.5649C55.8125 24.0233 55.5729 24.3879 55.2188 24.6587C54.8646 24.9295 54.4583 25.0649 54 25.0649C53.9167 25.0649 53.8229 25.0649 53.7188 25.0649C53.6146 25.0649 53.5208 25.0441 53.4375 25.0024H53.5C53.2917 24.9608 53.0938 24.8774 52.9062 24.7524C52.7188 24.6274 52.5625 24.4816 52.4375 24.3149L53.125 22.7524C53.25 22.7108 53.3542 22.6691 53.4375 22.6274C53.5208 22.5858 53.6042 22.5441 53.6875 22.5024C54.2292 22.1691 54.7083 21.742 55.125 21.2212C55.5417 20.7004 55.8333 20.1274 56 19.5024ZM50.8125 23.1274L48.5625 28.1899H42.25L42.5 27.3149C42.5 27.3149 42.5104 27.2837 42.5312 27.2212C42.5521 27.1587 42.5625 27.1066 42.5625 27.0649C42.5625 27.0649 42.5521 27.0441 42.5312 27.0024C42.5104 26.9608 42.5 26.9191 42.5 26.8774L40.9375 19.0024C41.0625 18.9608 41.1979 18.9191 41.3438 18.8774C41.4896 18.8358 41.625 18.7733 41.75 18.6899L41.6875 18.7524C41.9792 19.0858 42.2917 19.3774 42.625 19.6274C42.9583 19.8774 43.3125 20.0858 43.6875 20.2524H43.75L44.9375 26.3149C44.9792 26.5233 45.0833 26.7004 45.25 26.8462C45.4167 26.992 45.6042 27.0649 45.8125 27.0649C45.8542 27.0649 45.875 27.0649 45.875 27.0649C45.875 27.0649 45.8958 27.0649 45.9375 27.0649C46.1458 27.0649 46.3333 27.0129 46.5 26.9087C46.6667 26.8045 46.7708 26.6691 46.8125 26.5024H46.875L48.75 22.5024C49.0417 22.7108 49.3542 22.867 49.6875 22.9712C50.0208 23.0754 50.375 23.1274 50.75 23.1274H50.8125ZM46.75 20.5024C46.8333 20.6274 46.9062 20.742 46.9688 20.8462C47.0312 20.9504 47.1042 21.0441 47.1875 21.1274L46.3125 22.9399L45.875 20.6274C46.0417 20.6274 46.1979 20.617 46.3438 20.5962C46.4896 20.5754 46.6458 20.5441 46.8125 20.5024H46.75ZM38.875 19.0024L39.25 20.8149C39.125 20.8566 39 20.8879 38.875 20.9087C38.75 20.9295 38.625 20.9399 38.5 20.9399C38.4167 20.9399 38.3333 20.9295 38.25 20.9087C38.1667 20.8879 38.0833 20.8774 38 20.8774C37.5833 20.7524 37.2396 20.5129 36.9688 20.1587C36.6979 19.8045 36.5625 19.3983 36.5625 18.9399C36.5625 18.8566 36.5625 18.7629 36.5625 18.6587C36.5625 18.5545 36.5833 18.4608 36.625 18.3774V18.4399C36.625 18.3566 36.6458 18.2837 36.6875 18.2212C36.7292 18.1587 36.75 18.1066 36.75 18.0649C37 18.2733 37.2708 18.4504 37.5625 18.5962C37.8542 18.742 38.1667 18.8566 38.5 18.9399H38.5625C38.6042 18.9399 38.6562 18.9504 38.7188 18.9712C38.7812 18.992 38.8333 19.0024 38.875 19.0024ZM37.5 22.8149C37.6667 22.8566 37.8333 22.8879 38 22.9087C38.1667 22.9295 38.3542 22.9399 38.5625 22.9399C38.7292 22.9399 38.9167 22.9191 39.125 22.8774C39.3333 22.8358 39.5208 22.7941 39.6875 22.7524H39.625L40.5 27.0649L40.1875 28.1899H40L37.5 22.8149ZM37.8125 28.1899H35.8125C35.8542 28.1899 35.8958 28.1795 35.9375 28.1587C35.9792 28.1379 36.0208 28.1274 36.0625 28.1274L37.4375 27.3149L37.8125 28.1899ZM30.9375 14.8774L29.875 15.5024C29.75 15.5858 29.6354 15.7004 29.5312 15.8462C29.4271 15.992 29.375 16.1691 29.375 16.3774C29.375 16.6274 29.4792 16.8566 29.6875 17.0649C29.8958 17.2733 30.125 17.3774 30.375 17.3774C30.5 17.3774 30.6042 17.3566 30.6875 17.3149C30.7708 17.2733 30.8542 17.2316 30.9375 17.1899H30.875L32.25 16.4399L33.5625 19.1274L32.375 19.8149C32.25 19.8983 32.1354 20.0129 32.0312 20.1587C31.9271 20.3045 31.875 20.4816 31.875 20.6899C31.875 20.9399 31.9792 21.1691 32.1875 21.3774C32.3958 21.5858 32.625 21.6899 32.875 21.6899C33 21.6899 33.1042 21.6795 33.1875 21.6587C33.2708 21.6379 33.3542 21.6066 33.4375 21.5649H33.375L34.4375 20.9399L36.5625 25.5024L35.0625 26.3774C34.8958 26.4608 34.7708 26.5754 34.6875 26.7212C34.6042 26.867 34.5625 27.0441 34.5625 27.2524C34.5625 27.4608 34.625 27.6483 34.75 27.8149C34.875 27.9816 35.0417 28.1066 35.25 28.1899H31.75L30.625 26.6274L33.1875 25.1274C33.3125 25.0441 33.4271 24.9295 33.5312 24.7837C33.6354 24.6379 33.6875 24.4608 33.6875 24.2524C33.6875 24.0024 33.5833 23.7733 33.375 23.5649C33.1667 23.3566 32.9375 23.2524 32.6875 23.2524C32.6042 23.2524 32.5104 23.2629 32.4062 23.2837C32.3021 23.3045 32.2292 23.3566 32.1875 23.4399V23.3774L29.5 24.9399L27.8125 22.5024L29.8125 21.3149C29.9375 21.2316 30.0521 21.117 30.1562 20.9712C30.2604 20.8254 30.3125 20.6483 30.3125 20.4399C30.3125 20.1899 30.2083 19.9608 30 19.7524C29.7917 19.5441 29.5625 19.4399 29.3125 19.4399C29.2292 19.4399 29.1458 19.4504 29.0625 19.4712C28.9792 19.492 28.8958 19.5233 28.8125 19.5649L26.625 20.8149L26 19.9399C25.7917 19.6483 25.6354 19.3254 25.5312 18.9712C25.4271 18.617 25.375 18.2524 25.375 17.8774C25.375 16.8774 25.7292 16.0233 26.4375 15.3149C27.1458 14.6066 27.9792 14.2524 28.9375 14.2524C29.1458 14.2524 29.3438 14.2733 29.5312 14.3149C29.7188 14.3566 29.8958 14.3983 30.0625 14.4399C30.2292 14.4816 30.3854 14.5441 30.5312 14.6274C30.6771 14.7108 30.8125 14.7941 30.9375 14.8774ZM21.4375 11.9399L22.75 10.6274L24.75 12.6899L25.125 13.8149C25.0833 13.8566 25.0312 13.9087 24.9688 13.9712C24.9062 14.0337 24.8542 14.0858 24.8125 14.1274L21.4375 11.9399ZM15.6875 24.7524C15.9375 24.2108 16.3125 23.7524 16.8125 23.3774C17.3125 23.0024 17.875 22.8149 18.5 22.8149C18.5417 22.8149 18.5625 22.8149 18.5625 22.8149L18.3125 23.6274C18.1458 24.0024 17.9062 24.3462 17.5938 24.6587C17.2812 24.9712 16.9167 25.1899 16.5 25.3149L15.625 25.0649L15.6875 24.7524ZM18.9375 26.1899C19.1875 25.9399 19.4167 25.6587 19.625 25.3462C19.8333 25.0337 20 24.6899 20.125 24.3149H20.1875L20.3125 23.8774C20.3958 23.9608 20.4896 24.0233 20.5938 24.0649C20.6979 24.1066 20.8125 24.1274 20.9375 24.1274C21.2292 24.1274 21.4688 24.0337 21.6562 23.8462C21.8438 23.6587 21.9375 23.4191 21.9375 23.1274C21.9375 23.0024 21.9167 22.8879 21.875 22.7837C21.8333 22.6795 21.7708 22.5858 21.6875 22.5024L20.8125 21.6274C21.2708 21.2941 21.7604 21.0129 22.2812 20.7837C22.8021 20.5545 23.3333 20.3983 23.875 20.3149H23.9375C24.0208 20.4399 24.0938 20.5649 24.1562 20.6899C24.2188 20.8149 24.2917 20.9399 24.375 21.0649L29.3125 28.1899H24.75L18.9375 26.1899ZM39 55.1899C39 55.4816 38.9062 55.7212 38.7188 55.9087C38.5312 56.0962 38.2917 56.1899 38 56.1899C37.7083 56.1899 37.4688 56.0962 37.2812 55.9087C37.0938 55.7212 37 55.4816 37 55.1899V43.1899C37 42.8983 37.0938 42.6587 37.2812 42.4712C37.4688 42.2837 37.7083 42.1899 38 42.1899C38.2917 42.1899 38.5312 42.2837 38.7188 42.4712C38.9062 42.6587 39 42.8983 39 43.1899V46.3149C38.6667 46.8983 38.4167 47.5129 38.25 48.1587C38.0833 48.8045 38 49.4816 38 50.1899C38.0417 51.1066 38.1562 51.992 38.3438 52.8462C38.5312 53.7004 38.7708 54.5233 39.0625 55.3149V55.1899H39ZM55 40.1899H55.8125C55.6042 40.7733 55.25 41.2524 54.75 41.6274C54.25 42.0024 53.6667 42.1899 53 42.1899H52.1875C52.3958 41.6066 52.75 41.1274 53.25 40.7524C53.75 40.3774 54.3333 40.1899 55 40.1899ZM48.875 44.0649L48.25 39.0649C48.25 39.0233 48.25 39.0024 48.25 39.0024C48.25 39.0024 48.25 38.9816 48.25 38.9399C48.25 38.7316 48.3229 38.5545 48.4688 38.4087C48.6146 38.2629 48.7917 38.1899 49 38.1899C49.2083 38.1899 49.3854 38.2629 49.5312 38.4087C49.6771 38.5545 49.75 38.7316 49.75 38.9399C49.75 38.9816 49.75 39.0024 49.75 39.0024C49.75 39.0024 49.75 39.0233 49.75 39.0649L49.125 44.0649C49.125 44.1066 49.1146 44.1379 49.0938 44.1587C49.0729 44.1795 49.0417 44.1899 49 44.1899C48.9583 44.1899 48.9271 44.1795 48.9062 44.1587C48.8854 44.1379 48.875 44.1066 48.875 44.0649ZM53.375 46.3774C53.3333 46.3358 53.2708 46.3045 53.1875 46.2837C53.1042 46.2629 53.0208 46.2524 52.9375 46.2524C52.6458 46.2524 52.4062 46.3566 52.2188 46.5649C52.0312 46.7733 51.9375 47.0024 51.9375 47.2524C51.9375 47.4608 51.9896 47.6379 52.0938 47.7837C52.1979 47.9295 52.3125 48.0441 52.4375 48.1274C52.7708 48.2941 53.0417 48.5024 53.25 48.7524C53.4583 49.0024 53.625 49.2941 53.75 49.6274C53.8333 49.8358 53.9583 50.0024 54.125 50.1274C54.2917 50.2524 54.4792 50.3149 54.6875 50.3149C54.9792 50.3149 55.2188 50.2212 55.4062 50.0337C55.5938 49.8462 55.6875 49.6066 55.6875 49.3149C55.6875 49.2316 55.6875 49.1587 55.6875 49.0962C55.6875 49.0337 55.6667 48.9816 55.625 48.9399C55.4167 48.3983 55.125 47.9087 54.75 47.4712C54.375 47.0337 53.9375 46.6691 53.4375 46.3774H53.375Z" fill="#EEC044"/>
</svg>
