<?xml version="1.0" encoding="utf-8"?>
<!-- Generator: Adobe Illustrator 27.9.0, SVG Export Plug-In . SVG Version: 6.00 Build 0)  -->
<svg version="1.1" id="Layer_1" xmlns="http://www.w3.org/2000/svg" xmlns:xlink="http://www.w3.org/1999/xlink" x="0px" y="0px"
	 viewBox="0 0 512 512" style="enable-background:new 0 0 512 512;" xml:space="preserve">
<style type="text/css">
	.st0{fill:#114B9A;}
	.st1{fill:#F4B223;}
</style>
<g id="XMLID_33_">
	<g>
		<path class="st0" d="M344.25,123.01l-11.15,6.89c-2.25-2.32-4.54-4.56-6.97-6.64l6.15-11.49c2.83-5.27,0.84-11.84-4.44-14.66
			l-23.83-12.77c-5.27-2.82-11.85-0.83-14.67,4.44l-6.22,11.6c-3.09-0.85-6.22-1.58-9.39-2.18l-0.44-13.15
			c-0.21-5.98-5.22-10.67-11.21-10.46l-27.02,0.92c-5.97,0.2-10.66,5.22-10.46,11.2l0.45,13.02c-2.9,0.76-5.77,1.69-8.61,2.69
			l-6.89-11.14c-3.16-5.09-9.82-6.66-14.92-3.52l-22.99,14.21c-5.09,3.16-6.68,9.83-3.52,14.93l6.89,11.13
			c-2.32,2.25-4.55,4.55-6.64,6.96l-11.5-6.15c-5.26-2.82-11.84-0.83-14.65,4.45l-12.77,23.83c-2.82,5.28-0.83,11.83,4.44,14.65
			l11.61,6.24c-0.85,3.08-1.59,6.21-2.18,9.37l-13.16,0.45c-5.99,0.2-10.66,5.21-10.46,11.2l0.93,27.02
			c0.2,5.98,5.21,10.66,11.2,10.45l13.02-0.43c0.75,2.9,1.69,5.75,2.67,8.61l-11.13,6.89c-5.08,3.16-6.66,9.83-3.53,14.92
			l14.23,22.99c3.14,5.09,9.82,6.66,14.92,3.52l11.14-6.89c2.25,2.31,4.55,4.55,6.97,6.63l-6.16,11.5
			c-2.83,5.27-0.84,11.85,4.44,14.67l23.83,12.76c5.29,2.83,11.85,0.84,14.67-4.43l6.21-11.61c3.1,0.86,6.22,1.58,9.38,2.18
			l0.45,13.16c0.2,5.98,5.22,10.67,11.21,10.46l27.03-0.91c5.98-0.21,10.65-5.23,10.44-11.21l-0.43-13.01
			c2.89-0.75,5.76-1.68,8.61-2.69l6.9,11.14c3.14,5.09,9.82,6.66,14.91,3.53l22.98-14.23c5.1-3.15,6.67-9.82,3.53-14.91l-6.9-11.14
			c2.3-2.26,4.55-4.55,6.65-6.97l11.49,6.15c5.27,2.82,11.83,0.82,14.66-4.43l12.76-23.85c2.83-5.28,0.83-11.83-4.45-14.67
			l-11.61-6.22c0.86-3.09,1.59-6.22,2.17-9.38l13.17-0.45c5.99-0.2,10.66-5.23,10.46-11.2l-0.92-27.03
			c-0.21-5.99-5.22-10.66-11.21-10.47l-13.01,0.47c-0.75-2.91-1.69-5.77-2.68-8.61l11.14-6.9c5.09-3.15,6.65-9.84,3.52-14.92
			l-14.23-23C356.01,121.44,349.33,119.86,344.25,123.01z M301.01,285.39c-42.75,26.45-98.84,13.23-125.29-29.51
			c-26.43-42.74-13.21-98.84,29.54-125.29c42.75-26.44,98.84-13.23,125.28,29.53C356.99,202.87,343.76,258.97,301.01,285.39z"/>
	</g>
</g>
<path class="st0" d="M181.75,181.76c0,0,77.93,10.08,74.26,103.14c0,0,33-35.76,12.38-137.52c0.46,47.67-11.46,62.34-11.46,62.34
	S226.22,177.64,181.75,181.76z"/>
<path class="st1" d="M180.14,251.11c0,0,44.13-16.99,72.04,36.82c0,0,5.86-46.02-33.4-86.93c0,0,14.34,17.67,10.36,41.92
	C229.14,242.92,200.9,235.14,180.14,251.11z"/>
<path class="st0" d="M252.67,190.91c-6.47,2.5-13.75-0.72-16.25-7.19c-2.5-6.47,0.72-13.75,7.19-16.26
	c6.48-2.5,13.75,0.72,16.26,7.19C262.36,181.12,259.14,188.4,252.67,190.91z"/>
<path class="st1" d="M277.95,192.06c0,0,9.59,63.78-18.11,95.22c0,0,45.15-11.7,78.65-85.13c0,0-23.76,32.87-45.64,45.61
	C287.91,207.75,277.95,192.06,277.95,192.06z"/>
<path class="st0" d="M232.9,378.16l-20.22,39.42c0,0-33.81-13.94-57.75-18.83c-33.66-10.39-72.81-67.99-72.81-67.99
	c-9.57-15.59,10.71-23.59,17.12-12.6c8.62,7.33,28.36,38.49,79.11,46.36c0,0-19.87-7.23-29.16-16.31c-3.73-12.22,23-3.8,23-3.8
	s22.5-6.17,40.25,13.29L232.9,378.16z"/>
<path class="st0" d="M226.78,436.75l-0.44-0.21c-5.07-2.39-7.23-8.44-4.84-13.5l16.12-34.16c2.39-5.07,8.44-7.23,13.5-4.84
	l0.44,0.21c5.07,2.39,7.23,8.44,4.84,13.5l-16.12,34.16C237.89,436.97,231.85,439.14,226.78,436.75z"/>
<path class="st0" d="M284.75,375.9l23.58,37.51c0,0,32.47-16.83,55.89-23.78c32.63-13.28,66.62-74.06,66.62-74.06
	c8.18-16.37-12.72-22.57-18.15-11.06c-7.95,8.06-24.9,40.81-74.77,53.07c0,0,19.17-8.93,27.63-18.79
	c2.65-12.5-23.24-1.78-23.24-1.78s-22.95-4.19-38.94,16.74L284.75,375.9z"/>
<path class="st0" d="M295.94,433.74l0.42-0.25c4.84-2.82,6.47-9.03,3.65-13.87l-19.04-32.62c-2.82-4.84-9.03-6.47-13.87-3.65
	l-0.42,0.25c-4.84,2.82-6.47,9.04-3.65,13.87l19.04,32.62C284.89,434.93,291.1,436.56,295.94,433.74z"/>
</svg>
